<svg width="160" height="160" viewBox="0 0 160 160" fill="none" xmlns="http://www.w3.org/2000/svg">
<rect width="160" height="160" fill="#F5F9FF"/>
<g filter="url(#filter0_i_269_1730)">
<path fill-rule="evenodd" clip-rule="evenodd" d="M78.2744 113.5C79.0461 113.5 79.5331 112.659 79.197 111.964C77.8 109.078 77 105.845 77 102.4C77 90.153 87.0128 80.2 99.3333 80.2C100.204 80.2 101.057 80.2701 101.905 80.374C102.512 80.4485 103.056 79.9827 103.056 79.3711V46.9C103.056 42.793 99.7056 39.5 95.6111 39.5H75.2778C74.7255 39.5 74.2778 39.9477 74.2778 40.5V64.7257C74.2778 65.4824 73.4699 65.9649 72.8036 65.6061L64.4464 61.1054C64.1504 60.9459 63.7941 60.9459 63.4981 61.1054L55.1408 65.6061C54.4746 65.9649 53.6667 65.4824 53.6667 64.7257V40.5C53.6667 39.9477 53.219 39.5 52.6667 39.5H50.9444C46.8128 39.5 43.5 42.83 43.5 46.9V106.1C43.5 110.207 46.8128 113.5 50.9444 113.5H78.2744Z" fill="#D8E3FF"/>
</g>
<g filter="url(#filter1_i_269_1730)">
<path d="M94.5034 93.242C93.1701 92.4687 91.5 93.4307 91.5 94.9721V117.028C91.5 118.569 93.1701 119.531 94.5034 118.758L113.517 107.73C114.846 106.959 114.846 105.041 113.517 104.27L94.5034 93.242Z" fill="#006BFE"/>
</g>
<g filter="url(#filter2_i_269_1730)">
<path d="M56.5 60.6667V41C56.5 40.1716 57.1716 39.5 58 39.5H70C70.8284 39.5 71.5 40.1716 71.5 41V60.6667C71.5 61.0441 71.0978 61.2855 70.7647 61.1078L64.4706 57.751C64.1765 57.5941 63.8235 57.5941 63.5294 57.751L57.2353 61.1078C56.9022 61.2855 56.5 61.0441 56.5 60.6667Z" fill="#465A8D"/>
</g>
<defs>
<filter id="filter0_i_269_1730" x="43.5" y="39.5" width="59.5557" height="74" filterUnits="userSpaceOnUse" color-interpolation-filters="sRGB">
<feFlood flood-opacity="0" result="BackgroundImageFix"/>
<feBlend mode="normal" in="SourceGraphic" in2="BackgroundImageFix" result="shape"/>
<feColorMatrix in="SourceAlpha" type="matrix" values="0 0 0 0 0 0 0 0 0 0 0 0 0 0 0 0 0 0 127 0" result="hardAlpha"/>
<feOffset/>
<feGaussianBlur stdDeviation="2"/>
<feComposite in2="hardAlpha" operator="arithmetic" k2="-1" k3="1"/>
<feColorMatrix type="matrix" values="0 0 0 0 0.139885 0 0 0 0 0.144685 0 0 0 0 0.427885 0 0 0 0.25 0"/>
<feBlend mode="normal" in2="shape" result="effect1_innerShadow_269_1730"/>
</filter>
<filter id="filter1_i_269_1730" x="91.5" y="92.969" width="23.0137" height="26.062" filterUnits="userSpaceOnUse" color-interpolation-filters="sRGB">
<feFlood flood-opacity="0" result="BackgroundImageFix"/>
<feBlend mode="normal" in="SourceGraphic" in2="BackgroundImageFix" result="shape"/>
<feColorMatrix in="SourceAlpha" type="matrix" values="0 0 0 0 0 0 0 0 0 0 0 0 0 0 0 0 0 0 127 0" result="hardAlpha"/>
<feOffset/>
<feGaussianBlur stdDeviation="2"/>
<feComposite in2="hardAlpha" operator="arithmetic" k2="-1" k3="1"/>
<feColorMatrix type="matrix" values="0 0 0 0 0.139885 0 0 0 0 0.144685 0 0 0 0 0.427885 0 0 0 0.5 0"/>
<feBlend mode="normal" in2="shape" result="effect1_innerShadow_269_1730"/>
</filter>
<filter id="filter2_i_269_1730" x="56.5" y="39.5" width="15" height="21.6672" filterUnits="userSpaceOnUse" color-interpolation-filters="sRGB">
<feFlood flood-opacity="0" result="BackgroundImageFix"/>
<feBlend mode="normal" in="SourceGraphic" in2="BackgroundImageFix" result="shape"/>
<feColorMatrix in="SourceAlpha" type="matrix" values="0 0 0 0 0 0 0 0 0 0 0 0 0 0 0 0 0 0 127 0" result="hardAlpha"/>
<feOffset/>
<feGaussianBlur stdDeviation="2"/>
<feComposite in2="hardAlpha" operator="arithmetic" k2="-1" k3="1"/>
<feColorMatrix type="matrix" values="0 0 0 0 0.139885 0 0 0 0 0.144685 0 0 0 0 0.427885 0 0 0 0.25 0"/>
<feBlend mode="normal" in2="shape" result="effect1_innerShadow_269_1730"/>
</filter>
</defs>
</svg>
