<svg width="416" height="81" viewBox="0 0 416 81" fill="none" xmlns="http://www.w3.org/2000/svg">
<g clip-path="url(#clip0_244_1660)">
<path d="M40.4445 5C49.2198 5 56.3334 12.136 56.3334 20.9388V27.4592C56.3334 31.6943 54.6861 35.5428 52.0001 38.3973V20.2143C52.0001 13.8123 46.8265 8.62245 40.4445 8.62245H27.4446C21.0626 8.62245 15.889 13.8123 15.889 20.2143V38.3973C13.203 35.5428 11.5557 31.6943 11.5557 27.4592V20.9388C11.5557 12.136 18.6693 5 27.4446 5H40.4445Z" fill="#D8E3FF"/>
<path d="M41.8889 13.6938C44.681 13.6938 46.9444 15.8879 46.9444 18.5943V63.4476C46.9444 66.154 46.1254 66.8991 43.3333 66.8991H6.5C5.05556 66.8991 4.33333 68.0306 4.33333 69.0237V69.6994C4.33333 70.8593 5.30339 71.7995 6.5 71.7995H49.8333C51.03 71.7995 52 70.8593 52 69.6994V34.5331C55.9722 34.5331 52.8932 34.5331 56.3333 34.5331C56.3333 36.9834 56.3333 38.4003 56.3333 39.4336V71.0995C56.3333 73.8059 54.0699 76 51.2778 76H5.05556C2.26345 76 0 73.8059 0 71.0995V18.5943C0 18.516 0.00188737 18.438 0.00564236 18.3605C0.00771593 18.3178 0.0116124 18.2752 0.0148112 18.2327C0.0177014 18.1943 0.0201823 18.156 0.02398 18.1178C0.0273287 18.0842 0.0319233 18.0508 0.0359701 18.0173C0.0417566 17.9695 0.047112 17.9218 0.0543077 17.8744C0.0591405 17.8426 0.0650688 17.8111 0.0705295 17.7794C0.0782398 17.7348 0.0862687 17.6903 0.0952149 17.6461C0.101088 17.617 0.107153 17.5881 0.113553 17.5593C0.125659 17.5047 0.138379 17.4504 0.152344 17.3966C0.157503 17.3766 0.163156 17.3569 0.168565 17.3371C0.181777 17.2887 0.195492 17.2406 0.210178 17.1928C0.221022 17.1576 0.232395 17.1225 0.244032 17.0876C0.255402 17.0534 0.26718 17.0195 0.279297 16.9856C0.293668 16.9456 0.308323 16.9057 0.32373 16.866C0.335141 16.8367 0.347023 16.8076 0.358995 16.7785C0.375235 16.7391 0.391813 16.6998 0.409071 16.6609C0.427301 16.6198 0.446148 16.5791 0.465495 16.5386C0.478581 16.5112 0.491401 16.4836 0.504991 16.4565C0.523706 16.4192 0.543874 16.3826 0.563531 16.3458C0.632423 16.2167 0.707058 16.0911 0.787107 15.969C0.808123 15.9371 0.828837 15.9048 0.850583 15.8733C0.879248 15.8318 0.908823 15.791 0.938744 15.7503C0.951983 15.7323 0.964766 15.7141 0.978243 15.6963C1.00843 15.6564 1.03996 15.6176 1.07134 15.5787C1.08848 15.5575 1.10535 15.5361 1.12283 15.5151C1.15043 15.482 1.17899 15.4497 1.20747 15.4173C1.22943 15.3924 1.25129 15.3673 1.27376 15.3429C1.30835 15.305 1.3438 15.2681 1.37956 15.2314C1.39086 15.2198 1.40199 15.208 1.41341 15.1965C1.45123 15.1585 1.48931 15.1206 1.52837 15.0837C1.5497 15.0636 1.57157 15.044 1.59326 15.0242C1.6272 14.9933 1.66142 14.9626 1.69623 14.9327C1.71504 14.9164 1.73431 14.9007 1.75336 14.8848C1.85127 14.8028 1.95168 14.7235 2.05594 14.6489C2.06638 14.6415 2.07717 14.6345 2.08767 14.6271C2.43093 14.3854 2.80686 14.1849 3.20768 14.0323C3.22035 14.0274 3.23304 14.0226 3.24577 14.0179C3.30172 13.9971 3.35815 13.9773 3.41504 13.9584C3.42467 13.9552 3.4343 13.952 3.44395 13.9489L3.55187 13.914C3.58217 13.9048 3.613 13.8973 3.64355 13.8887C3.65691 13.885 3.67035 13.8814 3.68376 13.8777C3.74238 13.8618 3.80133 13.8466 3.86078 13.8327C3.87906 13.8283 3.89744 13.8244 3.9158 13.8203C3.97515 13.8071 4.03481 13.7946 4.09494 13.7834C4.10902 13.7808 4.12314 13.7784 4.13726 13.7759C4.43513 13.7229 4.74188 13.6938 5.05556 13.6938H41.8889Z" fill="#006BFE"/>
<path d="M29.9895 50.2806C29.9895 52.8814 27.8878 54.9898 25.295 54.9898H20.9273C18.3346 54.9898 16.2329 52.8814 16.2329 50.2806C16.2329 48.281 19.3144 46.6582 23.1112 46.6582C26.908 46.6582 29.9895 48.281 29.9895 50.2806ZM23.1112 31.8061C25.4827 31.8061 27.7571 32.7984 29.434 34.5647C31.1109 36.331 32.053 38.7266 32.053 41.2245C32.053 42.382 31.8564 43.4922 31.4953 44.5172C31.1854 45.3972 30.0863 45.5602 29.4064 44.9231C28.9363 44.4826 28.8272 43.7881 29.0144 43.1707C29.2012 42.5546 29.3016 41.8983 29.3016 41.2245C29.3016 37.602 26.5503 34.7041 23.1112 34.7041C19.672 34.7041 16.9207 37.602 16.9207 41.2245C16.9207 41.8983 17.0212 42.5546 17.208 43.1707C17.3952 43.7881 17.286 44.4826 16.8159 44.9231C16.136 45.5602 15.037 45.3972 14.7271 44.5172C14.366 43.4922 14.1694 42.382 14.1694 41.2245C14.1694 38.7266 15.1115 36.331 16.7884 34.5647C18.4653 32.7984 20.7397 31.8061 23.1112 31.8061ZM23.1112 26.0102C26.9421 26.0102 30.6161 27.6131 33.3249 30.4664C36.0338 33.3196 37.5556 37.1894 37.5556 41.2245C37.5556 43.9222 36.886 46.4556 35.7191 48.6512C35.3087 49.4232 34.2848 49.5331 33.651 48.9323C33.1552 48.4623 33.0717 47.7084 33.3855 47.1008C34.289 45.352 34.8043 43.3485 34.8043 41.2245C34.8043 37.958 33.5724 34.8253 31.3795 32.5155C29.1866 30.2058 26.2124 28.9082 23.1112 28.9082C20.01 28.9082 17.0358 30.2058 14.8429 32.5155C12.65 34.8253 11.4181 37.958 11.4181 41.2245C11.4181 43.3485 11.9334 45.352 12.8369 47.1008C13.1507 47.7084 13.0672 48.4623 12.5714 48.9323C11.9375 49.5331 10.9137 49.4232 10.5033 48.6512C9.33639 46.4556 8.66675 43.9222 8.66675 41.2245C8.66675 37.1894 10.1885 33.3196 12.8975 30.4664C15.6063 27.6131 19.2803 26.0102 23.1112 26.0102ZM23.1112 37.602C24.0233 37.602 24.898 37.9837 25.5431 38.663C26.188 39.3423 26.5503 40.2637 26.5503 41.2245C26.5503 42.1852 26.188 43.1066 25.5431 43.7859C24.898 44.4653 24.0233 44.8469 23.1112 44.8469C22.1991 44.8469 21.3243 44.4653 20.6793 43.7859C20.0344 43.1066 19.672 42.1852 19.672 41.2245C19.672 40.2637 20.0344 39.3423 20.6793 38.663C21.3243 37.9837 22.1991 37.602 23.1112 37.602Z" fill="#D8E3FF"/>
<path d="M52 29.9949C52 28.1943 53.4551 26.7347 55.25 26.7347C60.6347 26.7347 65 31.1136 65 36.5153V45.2092C65 50.6108 60.6347 54.9898 55.25 54.9898C53.4551 54.9898 52 53.5302 52 51.7296V29.9949Z" fill="#D8E3FF"/>
<path d="M52 29.9949C52 28.1943 53.4551 26.7347 55.25 26.7347C60.6347 26.7347 65 31.1136 65 36.5153V45.2092C65 50.6108 60.6347 54.9898 55.25 54.9898C53.4551 54.9898 52 53.5302 52 51.7296V29.9949Z" fill="#D8E3FF"/>
</g>
<rect x="123.541" y="18.5457" width="13.3056" height="9.31393" rx="4.65696" fill="#006BFE"/>
<path d="M88 19C88 18.4477 88.4477 18 89 18H100.971C101.523 18 101.971 18.4477 101.971 19V52.1143C101.971 52.6666 102.419 53.1143 102.971 53.1143H115.94C116.492 53.1143 116.94 53.5621 116.94 54.1143V61.0956C116.94 61.6479 116.492 62.0956 115.94 62.0956H89C88.4477 62.0956 88 61.6479 88 61.0956V19Z" fill="#006BFE"/>
<path d="M123.613 32.1081C123.613 31.5558 124.061 31.1081 124.613 31.1081H136.085C136.638 31.1081 137.085 31.5558 137.085 32.1081V61.0956C137.085 61.6479 136.638 62.0956 136.085 62.0956H124.613C124.061 62.0956 123.613 61.6479 123.613 61.0956V32.1081Z" fill="#006BFE"/>
<path d="M173.46 37.0452C173.424 37.7516 172.685 38.199 172.033 37.9262C170.421 37.2524 168.834 36.7122 167.272 36.3056C165.297 35.7651 163.561 35.4948 162.064 35.4948C160.484 35.4948 159.362 35.6507 158.696 35.9626C158.031 36.2536 157.699 36.7734 157.699 37.5218C157.699 38.1871 158.187 38.7173 159.164 39.1123C160.141 39.4865 161.576 39.9231 163.468 40.422C165.36 40.921 167.054 41.4719 168.551 42.0748C170.048 42.6778 171.316 43.4262 172.356 44.3202C173.416 45.2141 174.216 46.2848 174.757 47.5322C175.318 48.7796 175.599 50.3077 175.599 52.1164C175.599 53.738 175.287 55.2245 174.663 56.5759C174.04 57.9064 173.094 59.0499 171.825 60.0062C170.557 60.9626 168.956 61.7006 167.023 62.2204C165.089 62.7401 162.813 63 160.193 63C157.865 63 155.526 62.8233 153.177 62.4699C151.043 62.1678 148.893 61.6429 146.726 60.8952C146.329 60.7582 146.067 60.3817 146.067 59.9617V52.5531C146.067 51.8322 146.807 51.347 147.477 51.6134C149.152 52.2798 150.834 52.832 152.522 53.2703C154.684 53.8316 156.742 54.1123 158.696 54.1123C162.21 54.1123 163.967 53.3846 163.967 51.9293C163.967 51.6798 163.884 51.4511 163.717 51.2432C163.551 51.0353 163.239 50.8378 162.782 50.6507C162.345 50.4428 161.721 50.2349 160.911 50.027C160.121 49.7983 159.102 49.5281 157.854 49.2162C156.129 48.8004 154.497 48.2703 152.958 47.6258C151.441 46.9605 150.11 46.1601 148.967 45.2245C147.844 44.2682 146.95 43.1559 146.285 41.8877C145.64 40.6195 145.318 39.1746 145.318 37.553C145.318 36.0977 145.62 34.7568 146.222 33.5301C146.846 32.3035 147.771 31.2536 148.998 30.3805C150.245 29.5073 151.784 28.8316 153.613 28.3534C155.464 27.8545 157.605 27.605 160.037 27.605C161.451 27.605 162.802 27.6674 164.091 27.7921C165.401 27.9168 166.638 28.0728 167.802 28.2599C168.967 28.4262 170.048 28.6133 171.046 28.8212C171.736 28.9479 172.387 29.0698 173.001 29.187C173.49 29.2804 173.834 29.7206 173.808 30.2177L173.46 37.0452Z" fill="#006BFE"/>
<path d="M199.985 63C198.052 63 196.202 62.7609 194.435 62.2827C192.667 61.8254 191.108 61.0457 189.757 59.9439C188.426 58.8212 187.356 57.3451 186.545 55.5156C185.755 53.6653 185.36 51.368 185.36 48.6237V37.1809C185.36 36.6286 184.912 36.1809 184.36 36.1809H180.154C179.602 36.1809 179.154 35.7332 179.154 35.1809V30.3528C179.154 29.8335 179.549 29.3982 180.064 29.326C181.813 29.0806 185.629 28.3596 187.407 26.5811C189.169 24.8197 189.662 20.9812 189.799 19.1702C189.84 18.6255 190.289 18.1871 190.835 18.1871H197.832C198.384 18.1871 198.832 18.6348 198.832 19.1871V27.447C198.832 27.9993 199.279 28.447 199.832 28.447H207.591C208.222 28.447 208.695 29.0243 208.578 29.6444C208.417 30.4983 208.266 31.3569 208.125 32.2204C207.983 33.1825 207.889 34.1745 207.842 35.1964C207.818 35.7422 207.374 36.1809 206.828 36.1809H199.832C199.279 36.1809 198.832 36.6286 198.832 37.1809V48.499C198.832 49.2474 198.884 49.9751 198.988 50.6819C199.112 51.368 199.351 51.9813 199.705 52.5218C200.058 53.0416 200.568 53.4678 201.233 53.8004C201.898 54.1123 202.782 54.2682 203.884 54.2682C204.59 54.2682 205.37 54.2058 206.222 54.0811C206.742 53.9924 207.303 53.8614 207.907 53.6879C208.531 53.5088 209.18 53.9252 209.24 54.5713L209.8 60.611C209.842 61.0632 209.575 61.4892 209.142 61.6283C208.011 61.9924 206.746 62.2937 205.349 62.5322C203.665 62.8441 201.877 63 199.985 63Z" fill="#006BFE"/>
<path d="M247.293 60.0315C247.293 60.4631 247.017 60.8471 246.604 60.9751C244.846 61.521 242.965 61.9777 240.963 62.3451C238.696 62.7817 236.337 63 233.884 63C231.202 63 228.644 62.6466 226.212 61.9397C223.78 61.2328 221.638 60.131 219.788 58.6341C217.938 57.1372 216.462 55.2453 215.36 52.9584C214.279 50.6507 213.738 47.9064 213.738 44.7256C213.738 42.9168 214.019 41.2432 214.58 39.7048C215.141 38.1455 215.9 36.7318 216.857 35.4636C217.834 34.1954 218.967 33.0728 220.256 32.0956C221.565 31.1185 222.958 30.2973 224.435 29.632C225.931 28.9667 227.47 28.4678 229.05 28.1351C230.63 27.7817 232.179 27.605 233.696 27.605C236.087 27.605 238.198 27.8753 240.027 28.4158C241.857 28.9356 243.374 29.6424 244.58 30.5364C245.807 31.4304 246.732 32.4699 247.356 33.6549C247.979 34.8399 248.291 36.0977 248.291 37.4283C248.291 39.0499 248.01 40.4324 247.449 41.5759C246.909 42.7193 246.17 43.6861 245.235 44.4761C244.32 45.2453 243.249 45.8586 242.023 46.316C240.817 46.7526 239.538 47.0956 238.187 47.3451C236.836 47.5738 235.453 47.7193 234.04 47.7817C232.647 47.8441 231.316 47.8753 230.048 47.8753C229.611 47.8753 229.185 47.8753 228.769 47.8753C228.757 47.8746 228.746 47.874 228.734 47.8734C228.127 47.8424 227.654 48.3839 227.804 48.9725C227.984 49.677 228.233 50.2988 228.551 50.8378C229.05 51.6486 229.663 52.3139 230.391 52.8337C231.139 53.3326 231.992 53.6965 232.948 53.9252C233.925 54.1331 234.965 54.237 236.067 54.237C236.898 54.237 237.782 54.1746 238.717 54.0499C239.674 53.9252 240.63 53.7588 241.586 53.5509C242.563 53.3222 243.53 53.0728 244.486 52.8025C244.988 52.6531 245.479 52.5009 245.958 52.346C246.614 52.1345 247.293 52.6177 247.293 53.3061V60.0315ZM227.384 41.96C227.319 42.5406 227.803 43.0204 228.387 42.991C228.64 42.9781 228.913 42.9638 229.206 42.948C229.996 42.9064 230.827 42.8337 231.701 42.7297C232.574 42.6258 233.447 42.4802 234.32 42.2931C235.193 42.106 235.983 41.8669 236.69 41.5759C237.397 41.2848 237.969 40.921 238.405 40.4844C238.842 40.0478 239.06 39.5177 239.06 38.894C239.06 37.8337 238.634 36.9917 237.782 36.368C236.95 35.7235 235.786 35.4012 234.289 35.4012C233.603 35.4012 232.865 35.5052 232.075 35.7131C231.285 35.9002 230.547 36.2744 229.861 36.8358C229.175 37.3971 228.593 38.1767 228.114 39.1746C227.75 39.9344 227.507 40.8629 227.384 41.96Z" fill="#006BFE"/>
<path d="M256.586 29.447C256.586 28.8947 257.034 28.447 257.586 28.447H268.866C269.488 28.447 269.961 29.0087 269.876 29.6247C269.812 30.092 269.748 30.6141 269.684 31.1913C269.679 31.2358 269.674 31.2803 269.669 31.3249C269.563 32.3086 270.931 32.8036 271.674 32.1506C271.828 32.0155 271.986 31.8828 272.148 31.7526C273.229 30.8794 274.414 30.1414 275.703 29.5385C276.992 28.9148 278.353 28.4366 279.788 28.1039C281.243 27.7713 282.709 27.605 284.185 27.605C285.807 27.605 287.345 27.8545 288.8 28.3534C290.256 28.8316 291.534 29.6008 292.636 30.6611C293.738 31.7214 294.611 33.1039 295.256 34.8087C295.9 36.4927 296.222 38.5405 296.222 40.9522V61.0956C296.222 61.6479 295.775 62.0956 295.222 62.0956H283.751C283.198 62.0956 282.751 61.6479 282.751 61.0956V42.9168C282.751 41.6279 282.615 40.5572 282.345 39.7048C282.075 38.8524 281.701 38.1767 281.222 37.6778C280.744 37.1788 280.173 36.8254 279.507 36.6175C278.863 36.4096 278.156 36.3056 277.387 36.3056C276.555 36.3056 275.734 36.4511 274.923 36.7422C274.112 37.0125 273.374 37.3867 272.709 37.8649C272.044 38.343 271.472 38.9044 270.994 39.5489C270.537 40.1647 270.232 40.8184 270.079 41.5102C270.064 41.5745 270.058 41.6402 270.058 41.7061V61.0956C270.058 61.6479 269.611 62.0956 269.058 62.0956H257.586C257.034 62.0956 256.586 61.6479 256.586 61.0956V29.447Z" fill="#006BFE"/>
<path d="M313.717 63C312.387 63 311.108 62.8129 309.882 62.4387C308.676 62.0644 307.605 61.4927 306.669 60.7235C305.734 59.9543 304.985 58.9875 304.424 57.8233C303.884 56.6383 303.613 55.2453 303.613 53.6445C303.613 52.106 303.863 50.7755 304.362 49.6528C304.861 48.5094 305.526 47.5322 306.358 46.7214C307.21 45.9106 308.198 45.2453 309.32 44.7256C310.464 44.185 311.669 43.7692 312.938 43.4782C314.206 43.1663 315.505 42.9584 316.836 42.8545C318.187 42.7297 319.497 42.6674 320.765 42.6674C321.638 42.6674 322.48 42.6881 323.291 42.7297C323.688 42.7501 324.072 42.7729 324.443 42.7982C325.042 42.8389 325.558 42.3562 325.473 41.7625C325.357 40.9443 325.139 40.2376 324.819 39.6424C324.362 38.7692 323.759 38.0832 323.01 37.5842C322.262 37.0644 321.389 36.7006 320.391 36.4927C319.393 36.2848 318.343 36.1809 317.241 36.1809C316.222 36.1809 315.173 36.2536 314.091 36.3992C313.031 36.5239 311.992 36.6902 310.973 36.8981C309.954 37.0852 308.977 37.2931 308.042 37.5218C307.629 37.6251 307.237 37.724 306.866 37.8188C306.231 37.9814 305.609 37.5027 305.609 36.8464V30.2141C305.609 29.7462 305.933 29.3402 306.391 29.2432C307.181 29.0759 308.012 28.9145 308.884 28.7588C310.069 28.5301 311.295 28.3326 312.563 28.1663C313.832 28 315.121 27.8649 316.43 27.7609C317.761 27.657 319.071 27.605 320.36 27.605C321.961 27.605 323.53 27.7089 325.069 27.9168C326.628 28.1039 328.094 28.4262 329.466 28.8836C330.859 29.341 332.137 29.9543 333.301 30.7235C334.486 31.4927 335.495 32.4491 336.326 33.5925C337.179 34.7152 337.844 36.0457 338.322 37.5842C338.8 39.1227 339.04 40.9002 339.04 42.9168V61.0956C339.04 61.6479 338.592 62.0956 338.04 62.0956H327.191C326.639 62.0956 326.191 61.6479 326.191 61.0956V59.9836C326.191 59.1314 324.733 58.6853 324.102 59.2578V59.2578C323.208 60.0478 322.2 60.7235 321.077 61.2848C319.954 61.8462 318.759 62.2723 317.491 62.5634C316.222 62.8545 314.965 63 313.717 63ZM318.988 55.6715C319.57 55.6715 320.235 55.5156 320.983 55.2037C321.753 54.8711 322.47 54.3721 323.135 53.7069C323.821 53.0416 324.393 52.1996 324.85 51.1809C325.212 50.4105 325.437 49.5273 325.525 48.5311C325.574 47.9809 325.12 47.5322 324.568 47.5322H324.538C323.541 47.5322 322.511 47.6362 321.451 47.8441C320.412 48.052 319.455 48.3638 318.582 48.7796C317.709 49.1954 316.992 49.7048 316.43 50.3077C315.869 50.9106 315.588 51.6071 315.588 52.3971C315.588 53.0208 315.692 53.5405 315.9 53.9563C316.108 54.3721 316.368 54.7152 316.68 54.9854C317.012 55.2349 317.376 55.4116 317.771 55.5156C318.187 55.6195 318.593 55.6715 318.988 55.6715Z" fill="#006BFE"/>
<path d="M348.083 29.447C348.083 28.8947 348.531 28.447 349.083 28.447H359.82C360.403 28.447 360.862 28.9429 360.835 29.5248C360.824 29.7595 360.815 30.0031 360.807 30.2557C360.786 30.9002 360.775 31.5863 360.775 32.3139C360.775 33.0208 360.775 33.738 360.775 34.4657V34.4657C360.775 34.9155 361.459 35.0653 361.674 34.6701C361.896 34.2621 362.137 33.8509 362.397 33.4366C363.062 32.3555 363.842 31.3888 364.736 30.5364C365.651 29.684 366.68 28.9875 367.823 28.447C368.988 27.8857 370.287 27.605 371.721 27.605C371.992 27.605 372.283 27.6258 372.595 27.6674C372.927 27.6881 373.249 27.7297 373.561 27.7921C373.873 27.8545 374.164 27.9376 374.435 28.0416C374.499 28.0599 374.561 28.0793 374.62 28.0997C374.964 28.2184 375.133 28.5791 375.102 28.9423L374.172 39.8832C374.116 40.5445 373.442 40.9686 372.803 40.7916C372.251 40.6388 371.683 40.5156 371.098 40.422C370.058 40.2349 369.154 40.1414 368.385 40.1414C367.324 40.1414 366.389 40.2765 365.578 40.5468C364.788 40.7963 364.112 41.1289 363.551 41.5447C362.99 41.9605 362.543 42.4179 362.21 42.9168C361.925 43.3729 361.718 43.8203 361.589 44.2589C361.565 44.3407 361.555 44.4256 361.555 44.5108V61.0956C361.555 61.6479 361.107 62.0956 360.555 62.0956H349.083C348.531 62.0956 348.083 61.6479 348.083 61.0956V29.447Z" fill="#006BFE"/>
<path d="M402.408 28.6258C402.408 28.0735 402.855 27.6258 403.408 27.6258H414.879C415.432 27.6258 415.879 28.0735 415.879 28.6258V42C415.879 44.3493 415.478 48.1289 415 50C414.522 51.8711 414.019 53.1247 413.166 54.58C412.314 56.0561 411.295 57.3139 410.11 58.3534C408.946 59.4137 407.657 60.2765 406.243 60.9418C404.83 61.6279 403.322 62.1268 401.721 62.4387C400.121 62.7713 398.478 62.9376 396.794 62.9376C394.528 62.9376 392.23 62.9833 389.965 62.5946C386.771 62.0466 384.413 61.3586 382.483 60.1253C382.179 59.9313 382.023 59.5774 382.061 59.2192L382.781 52.407C382.855 51.704 383.615 51.2993 384.245 51.6192C386.074 52.5473 387.364 53.091 389 53.5C390.29 53.8226 392.5 54 394.5 54C397.5 54 399.507 53.4029 401.285 51.7754C402.715 50.466 402.994 49.1434 403.049 45.8662C403.061 45.1307 401.858 44.7319 401.285 45.1933V45.1933C400.536 45.7963 399.705 46.3056 398.79 46.7214C397.875 47.1372 396.909 47.4491 395.89 47.657C394.892 47.8649 393.915 47.9688 392.958 47.9688C391.295 47.9688 389.715 47.7193 388.218 47.2204C386.721 46.7006 385.391 45.9002 384.227 44.8191C383.083 43.7173 382.168 42.3139 381.482 40.6091C380.817 38.9044 380.484 36.8669 380.484 34.4969V28.6258C380.484 28.0735 380.932 27.6258 381.484 27.6258H391.459C392.012 27.6258 392.459 28.0735 392.459 28.6258V34.1227C392.459 35.1622 392.605 36.0665 392.896 36.8358C393.208 37.5842 393.603 38.2079 394.081 38.7069C394.58 39.185 395.141 39.5489 395.765 39.7983C396.389 40.027 397.023 40.1414 397.667 40.1414C398.27 40.1414 398.852 40.0478 399.414 39.8607C399.996 39.6528 400.505 39.3617 400.942 38.9875C401.378 38.5925 401.732 38.1143 402.002 37.553C402.272 36.9917 402.408 36.3472 402.408 35.6195V28.6258Z" fill="#006BFE"/>
<defs>
<clipPath id="clip0_244_1660">
<rect width="65" height="71" fill="white" transform="translate(0 5)"/>
</clipPath>
</defs>
</svg>
