<svg width="71" height="78" viewBox="0 0 71 78" fill="none" xmlns="http://www.w3.org/2000/svg">
<g clip-path="url(#clip0_276_1691)">
<path d="M44.1776 0C53.7629 5.12777e-07 61.5332 7.83959 61.5332 17.5102V24.6735C61.5332 29.3261 59.7338 33.5541 56.7998 36.69V16.7143C56.7998 9.68107 51.1487 3.97959 44.1776 3.97959H29.9776C23.0065 3.97959 17.3554 9.68107 17.3554 16.7143V36.69C14.4214 33.5541 12.6221 29.3261 12.6221 24.6735V17.5102C12.6221 7.83959 20.3924 0 29.9776 0H44.1776Z" fill="#D8E3FF"/>
<path d="M45.7556 9.55103C48.8054 9.55103 51.2778 11.9614 51.2778 14.9346V64.2101C51.2778 67.1833 50.3832 68.0018 47.3333 68.0018H7.1C5.52222 68.0018 4.73333 69.2449 4.73333 70.3359V71.0782C4.73333 72.3525 5.79293 73.3854 7.1 73.3854H54.4333C55.7404 73.3854 56.8 72.3525 56.8 71.0782V32.4448C61.1389 32.4448 57.7757 32.4448 61.5333 32.4448C61.5333 35.1367 61.5333 36.6934 61.5333 37.8285V72.6164C61.5333 75.5896 59.0609 78 56.0111 78H5.52222C2.47239 78 0 75.5896 0 72.6164V14.9346C0 14.8486 0.00206159 14.7629 0.00616319 14.6778C0.00842817 14.6308 0.0126843 14.584 0.0161784 14.5374C0.0193354 14.4952 0.0220453 14.4531 0.0261936 14.4111C0.0298514 14.3742 0.0348701 14.3375 0.0392904 14.3007C0.045611 14.2482 0.0514608 14.1958 0.0593207 14.1438C0.0645997 14.1089 0.0710752 14.0742 0.0770399 14.0394C0.0854619 13.9903 0.094232 13.9415 0.104004 13.8929C0.110419 13.861 0.117044 13.8292 0.124035 13.7976C0.137259 13.7376 0.151153 13.6779 0.166407 13.6188C0.172042 13.5969 0.178216 13.5752 0.184125 13.5535C0.198556 13.5003 0.213537 13.4474 0.229579 13.395C0.241424 13.3562 0.253847 13.3177 0.266558 13.2793C0.278977 13.2418 0.291843 13.2045 0.305078 13.1674C0.320776 13.1233 0.336784 13.0795 0.353613 13.036C0.366078 13.0037 0.379056 12.9717 0.392133 12.9398C0.409872 12.8965 0.42798 12.8534 0.446831 12.8106C0.466744 12.7655 0.487331 12.7207 0.508463 12.6762C0.522757 12.6461 0.536762 12.6159 0.551606 12.5861C0.572048 12.545 0.594077 12.5048 0.615549 12.4644C0.6908 12.3227 0.772325 12.1846 0.859763 12.0505C0.882719 12.0154 0.905345 11.98 0.929098 11.9454C0.960409 11.8998 0.992714 11.8549 1.0254 11.8102C1.03986 11.7905 1.05382 11.7704 1.06854 11.7509C1.10152 11.7071 1.13595 11.6644 1.17024 11.6217C1.18895 11.5984 1.20738 11.5749 1.22648 11.5519C1.25663 11.5155 1.28782 11.48 1.31893 11.4444C1.34292 11.4171 1.3668 11.3895 1.39134 11.3626C1.42912 11.3211 1.46785 11.2805 1.5069 11.2402C1.51925 11.2274 1.53141 11.2145 1.54388 11.2018C1.58519 11.1601 1.62678 11.1184 1.66945 11.0779C1.69275 11.0558 1.71664 11.0343 1.74033 11.0126C1.77741 10.9786 1.81478 10.9449 1.85281 10.912C1.87335 10.8941 1.8944 10.8769 1.91521 10.8594C2.02216 10.7693 2.13184 10.6822 2.24571 10.6003C2.25712 10.5921 2.26891 10.5844 2.28038 10.5762C2.65532 10.3107 3.06595 10.0905 3.50378 9.9228C3.51762 9.91747 3.53148 9.91221 3.54538 9.90704C3.60649 9.8842 3.66814 9.86247 3.73028 9.84169C3.74079 9.83819 3.75131 9.83461 3.76186 9.83119L3.87973 9.7929C3.91283 9.7828 3.94651 9.77452 3.97988 9.76505C3.99448 9.76099 4.00915 9.75709 4.0238 9.75303C4.08782 9.73552 4.15222 9.7188 4.21716 9.70352C4.23713 9.69875 4.25721 9.69445 4.27726 9.68999C4.34209 9.67543 4.40725 9.66174 4.47294 9.6494C4.48831 9.64654 4.50374 9.64391 4.51917 9.64112C4.84453 9.58294 5.17959 9.55103 5.52222 9.55103H45.7556Z" fill="#006BFE"/>
<path d="M32.7578 49.7449C32.7578 52.6022 30.4621 54.9184 27.63 54.9184H22.8591C20.0271 54.9184 17.7314 52.6022 17.7314 49.7449C17.7314 47.5482 21.0973 45.7653 25.2446 45.7653C29.3918 45.7653 32.7578 47.5482 32.7578 49.7449ZM25.2446 29.449C27.835 29.449 30.3193 30.5391 32.1511 32.4795C33.9827 34.42 35.0118 37.0518 35.0118 39.7959C35.0118 41.0676 34.797 42.2873 34.4026 43.4133C34.0641 44.3801 32.8636 44.5591 32.1209 43.8592C31.6074 43.3753 31.4882 42.6123 31.6927 41.934C31.8967 41.2572 32.0065 40.5362 32.0065 39.7959C32.0065 35.8164 29.0012 32.6327 25.2446 32.6327C21.488 32.6327 18.4827 35.8164 18.4827 39.7959C18.4827 40.5362 18.5924 41.2572 18.7964 41.934C19.0009 42.6123 18.8817 43.3753 18.3682 43.8592C17.6256 44.5591 16.425 44.3801 16.0865 43.4133C15.6922 42.2873 15.4773 41.0676 15.4773 39.7959C15.4773 37.0518 16.5064 34.42 18.3381 32.4795C20.1698 30.5391 22.6542 29.449 25.2446 29.449ZM25.2446 23.0817C29.4291 23.0817 33.4422 24.8426 36.4011 27.9772C39.3601 31.1117 41.0224 35.3631 41.0224 39.7959C41.0224 42.7596 40.2909 45.5428 39.0163 47.9549C38.568 48.803 37.4496 48.9238 36.7573 48.2636C36.2157 47.7473 36.1245 46.9191 36.4673 46.2516C37.4541 44.3304 38.0171 42.1294 38.0171 39.7959C38.0171 36.2074 36.6714 32.7658 34.2761 30.2284C31.8808 27.6909 28.6321 26.2653 25.2446 26.2653C21.8571 26.2653 18.6084 27.6909 16.2131 30.2284C13.8178 32.7658 12.4721 36.2074 12.4721 39.7959C12.4721 42.1294 13.035 44.3304 14.0218 46.2516C14.3647 46.9191 14.2734 47.7473 13.7318 48.2636C13.0395 48.9238 11.9211 48.803 11.4729 47.9549C10.1983 45.5428 9.4668 42.7596 9.4668 39.7959C9.4668 35.3631 11.1291 31.1117 14.088 27.9772C17.0469 24.8426 21.0601 23.0817 25.2446 23.0817ZM25.2446 35.8164C26.2409 35.8164 27.1964 36.2356 27.9009 36.982C28.6054 37.7282 29.0012 38.7405 29.0012 39.7959C29.0012 40.8514 28.6054 41.8637 27.9009 42.6099C27.1964 43.3563 26.2409 43.7755 25.2446 43.7755C24.2483 43.7755 23.2928 43.3563 22.5882 42.6099C21.8838 41.8637 21.488 40.8514 21.488 39.7959C21.488 38.7405 21.8838 37.7282 22.5882 36.982C23.2928 36.2356 24.2483 35.8164 25.2446 35.8164Z" fill="#D8E3FF"/>
<path d="M56.7998 27.4592C56.7998 25.4811 58.3892 23.8776 60.3498 23.8776C66.2316 23.8776 70.9998 28.6883 70.9998 34.6225V44.1735C70.9998 50.1077 66.2316 54.9184 60.3498 54.9184C58.3892 54.9184 56.7998 53.3148 56.7998 51.3368V27.4592Z" fill="#D8E3FF"/>
<path d="M56.7998 27.4592C56.7998 25.4811 58.3892 23.8776 60.3498 23.8776C66.2316 23.8776 70.9998 28.6883 70.9998 34.6225V44.1735C70.9998 50.1077 66.2316 54.9184 60.3498 54.9184C58.3892 54.9184 56.7998 53.3148 56.7998 51.3368V27.4592Z" fill="#D8E3FF"/>
</g>
<defs>
<clipPath id="clip0_276_1691">
<rect width="71" height="78" fill="white"/>
</clipPath>
</defs>
</svg>
